# 3ds Max Wavefront OBJ Exporter v0.99 - (c)2007 guruware
# File Created: 12.05.2024 23:36:44

mtllib porygonCuerpo.mtl

#
# object porygonCuerpo
#

v  -0.2967 -0.5500 0.2280
v  -0.2967 -0.5500 -0.6031
v  0.3072 -0.5500 -0.6031
v  0.3072 -0.5500 0.2280
v  -0.2057 0.7566 0.4874
v  0.2044 0.7566 0.4874
v  0.2044 0.7566 -0.0490
v  -0.2057 0.7566 -0.0490
v  0.5963 -0.1766 0.7579
v  -0.6098 -0.1766 0.7579
v  0.5963 -0.1766 0.2870
v  0.5963 -0.1766 -0.8199
v  -0.2917 0.5580 0.5450
v  -0.5245 0.0393 0.3737
v  -0.6098 -0.1766 0.3002
v  -0.6098 -0.1766 -0.8199
v  -0.6098 -0.0381 -0.8199
v  0.5963 -0.0381 -0.8199
v  0.3610 0.4391 -0.3570
v  -0.3636 0.4461 -0.3502
v  0.5189 0.0258 0.3914
v  0.2885 0.5564 0.5455
# 22 vertices

vn 0.0000 -1.0000 -0.0000
vn 0.0000 1.0000 -0.0000
vn 0.0000 -0.8175 0.5760
vn 0.7907 -0.6122 -0.0000
vn -0.9150 0.4029 0.0231
vn -0.9149 0.4029 0.0231
vn -0.7662 -0.6426 -0.0000
vn 0.0000 -0.5021 -0.8648
vn 0.0000 0.0000 -1.0000
vn 0.0000 0.6962 -0.7178
vn 0.9194 0.3927 0.0228
vn 0.0000 0.2784 0.9605
vn 0.9341 0.3570 -0.0000
vn -0.9299 0.3677 -0.0000
# 14 vertex normals

vt 0.0411 0.4511 0.0000
vt 0.0411 0.0528 0.0000
vt 0.4394 0.0528 0.0000
vt 0.4394 0.4511 0.0000
vt 0.3523 0.1332 0.0000
vt 0.3523 0.3926 0.0000
vt 0.0928 0.3926 0.0000
vt 0.0928 0.1332 0.0000
vt 0.6732 0.2799 0.0000
vt 0.6732 0.0794 0.0000
vt 0.8737 0.0794 0.0000
vt 0.8737 0.2799 0.0000
vt 0.2402 0.4511 0.0000
vt 0.4296 0.3135 0.0000
vt 0.3573 0.0908 0.0000
vt 0.1232 0.0908 0.0000
vt 0.0508 0.3135 0.0000
vt 0.2611 0.1256 0.0000
vt 0.2611 0.2806 0.0000
vt 0.1061 0.2806 0.0000
vt 0.1061 0.1256 0.0000
vt 0.0744 0.1369 0.0000
vt 0.2772 0.1369 0.0000
vt 0.2772 0.3397 0.0000
# 24 texture coords

o porygonCuerpo
g porygonCuerpo
usemtl 02___Default
s 1
f 1/1/1 2/2/1 3/3/1 
f 3/3/1 4/4/1 1/1/1 
f 5/5/2 6/6/2 7/7/2 
f 7/7/2 8/8/2 5/5/2 
f 9/9/3 10/10/3 1/11/3 
f 1/11/3 4/12/3 9/9/3 
f 11/13/4 9/14/4 4/15/4 
f 11/13/4 4/15/4 3/16/4 
f 11/13/4 3/16/4 12/17/4 
f 13/10/5 14/11/5 10/12/6 
f 15/13/7 16/14/7 2/15/7 
f 15/13/7 2/15/7 1/16/7 
f 15/13/7 1/16/7 10/17/7 
f 2/4/8 16/1/8 12/2/8 
f 12/2/8 3/3/8 2/4/8 
f 17/1/9 18/2/9 12/3/9 
f 12/3/9 16/4/9 17/1/9 
f 7/4/10 19/1/10 20/2/10 
f 20/2/10 8/3/10 7/4/10 
f 20/1/10 19/2/10 18/3/10 
f 18/3/10 17/4/10 20/1/10 
f 21/10/11 22/11/11 9/12/11 
f 13/18/12 22/19/12 6/20/12 
f 6/20/12 5/21/12 13/18/12 
f 9/12/12 22/9/12 13/10/12 
f 13/10/12 10/11/12 9/12/12 
f 12/14/13 18/15/13 19/16/13 
f 12/14/13 19/16/13 21/17/13 
f 12/14/13 21/17/13 11/13/13 
f 21/22/13 9/23/13 11/24/13 
f 7/15/11 6/16/11 22/17/11 
f 22/17/11 21/13/11 19/14/11 
f 7/15/11 22/17/11 19/14/11 
f 15/2/14 10/3/14 14/4/14 
f 20/14/14 17/15/14 16/16/14 
f 20/14/14 16/16/14 15/17/14 
f 20/14/14 15/17/14 14/13/14 
f 8/15/5 20/16/5 14/17/5 
f 14/17/5 13/13/5 5/14/5 
f 8/15/5 14/17/5 5/14/5 
# 40 faces

