# 3ds Max Wavefront OBJ Exporter v0.99 - (c)2007 guruware
# File Created: 12.05.2024 23:35:55

mtllib porygonCabeza.mtl

#
# object porygonCabeza
#

v  0.5056 -0.4334 -0.0040
v  0.5056 -0.0046 0.0289
v  0.4561 0.0943 0.2598
v  0.4232 -0.0541 0.6391
v  0.4232 -0.4334 0.6721
v  0.5056 0.1768 -0.1855
v  0.3242 0.4901 -0.2679
v  0.3077 0.4572 0.0784
v  0.3077 0.3087 0.3753
v  0.5056 -0.2520 -1.0100
v  0.5056 0.0614 -0.9935
v  0.3242 0.4572 -0.9935
v  -0.5079 -0.4334 -0.0040
v  -0.4254 -0.4334 0.6721
v  -0.4254 -0.0541 0.6391
v  -0.4584 0.0943 0.2598
v  -0.5079 -0.0046 0.0289
v  -0.5079 -0.2520 -1.0100
v  -0.5079 0.1768 -0.1855
v  -0.5079 0.0614 -0.9935
v  -0.3265 0.4901 -0.2679
v  -0.3265 0.4572 -0.9935
v  -0.3265 0.1273 0.6886
v  -0.2275 -0.1036 1.0184
v  0.2253 -0.1036 1.0184
v  0.3242 0.1273 0.6886
v  -0.3100 0.3087 0.3753
v  -0.3100 0.4572 0.0784
v  -0.2275 -0.4004 1.0184
v  0.2253 -0.4004 1.0184
# 30 vertices

vn 0.9959 0.0078 0.0897
vn 0.9959 0.0078 0.0896
vn 0.8538 0.4657 0.2329
vn 0.8538 0.4657 0.2328
vn 1.0000 0.0000 -0.0000
vn 0.8678 0.4965 -0.0226
vn 0.8678 0.4964 -0.0226
vn -0.9959 0.0078 0.0897
vn -0.9959 0.0078 0.0896
vn -1.0000 0.0000 -0.0000
vn -0.8678 0.4965 -0.0226
vn -0.8678 0.4964 -0.0226
vn 0.0000 0.9990 -0.0454
vn 0.0000 0.8192 0.5735
vn 0.0000 0.0000 -1.0000
vn 0.0000 0.0526 -0.9986
vn -0.8538 0.4657 0.2329
vn -0.8537 0.4674 0.2298
vn -0.8538 0.4657 0.2328
vn -0.8222 0.3201 0.4707
vn 0.0000 0.9955 0.0948
vn 0.0000 0.8944 0.4472
vn 0.0000 0.8654 0.5010
vn -0.8536 0.4690 0.2266
vn 0.8539 0.4552 0.2524
vn 0.8538 0.4552 0.2524
vn 0.0000 -0.9841 -0.1775
vn 0.0000 -1.0000 -0.0000
vn -0.8692 0.0428 0.4926
vn 0.0000 -0.9955 0.0948
vn 0.0000 0.0000 1.0000
vn 0.8682 0.0000 0.4961
vn 0.8222 0.3201 0.4707
# 33 vertex normals

vt 0.4296 0.3135 0.0000
vt 0.3573 0.0908 0.0000
vt 0.1232 0.0908 0.0000
vt 0.0508 0.3135 0.0000
vt 0.2402 0.4511 0.0000
vt 0.7595 0.8838 0.0000
vt 0.7595 0.7305 0.0000
vt 0.6557 0.6538 0.0000
vt 0.5519 0.7305 0.0000
vt 0.5519 0.8838 0.0000
vt 0.6557 0.9605 0.0000
vt 0.0411 0.4511 0.0000
vt 0.0411 0.0528 0.0000
vt 0.4394 0.0528 0.0000
vt 0.4394 0.4511 0.0000
vt 0.6732 0.2799 0.0000
vt 0.6732 0.0794 0.0000
vt 0.8737 0.0794 0.0000
vt 0.8737 0.2799 0.0000
vt 0.3681 0.6835 0.0000
vt 0.2249 0.7487 0.0000
vt 0.2249 0.8792 0.0000
vt 0.3681 0.9444 0.0000
vt 0.5113 0.8792 0.0000
vt 0.5113 0.7487 0.0000
# 25 texture coords

o porygonCabeza
g porygonCabeza
usemtl 02___Default
s 1
f 1/1/1 2/2/1 3/3/2 
f 1/1/1 3/3/2 4/4/2 
f 1/1/1 4/4/2 5/5/2 
f 2/6/3 6/7/3 7/8/4 
f 2/6/3 7/8/4 8/9/4 
f 2/6/3 8/9/4 9/10/4 
f 2/6/3 9/10/4 3/11/4 
f 10/1/5 11/2/5 6/3/5 
f 10/1/5 6/3/5 2/4/5 
f 10/1/5 2/4/5 1/5/5 
f 7/12/6 6/13/7 11/14/7 
f 11/14/7 12/15/6 7/12/6 
f 13/2/8 14/3/9 15/4/8 
f 15/4/8 16/5/9 17/1/8 
f 13/2/8 15/4/8 17/1/8 
f 18/2/10 13/3/10 17/4/10 
f 17/4/10 19/5/10 20/1/10 
f 18/2/10 17/4/10 20/1/10 
f 21/12/11 22/13/11 20/14/12 
f 20/14/12 19/15/12 21/12/11 
f 22/12/13 21/13/13 7/14/13 
f 7/14/13 12/15/13 22/12/13 
f 23/16/14 24/17/14 25/18/14 
f 25/18/14 26/19/14 23/16/14 
f 11/12/15 20/13/15 22/14/15 
f 22/14/15 12/15/15 11/12/15 
f 18/12/16 20/13/16 11/14/16 
f 11/14/16 10/15/16 18/12/16 
f 17/20/17 16/21/18 27/22/18 
f 27/22/18 28/23/19 21/24/19 
f 17/20/17 27/22/18 21/24/19 
f 17/20/17 21/24/19 19/25/17 
f 24/17/20 23/18/20 15/19/20 
f 7/12/21 21/13/21 28/14/21 
f 28/14/21 8/15/21 7/12/21 
f 8/12/22 28/13/22 27/14/22 
f 27/14/22 9/15/22 8/12/22 
f 9/12/23 27/13/23 23/14/23 
f 23/14/23 26/15/23 9/12/23 
f 23/15/24 27/12/18 16/13/18 
f 16/13/18 15/14/24 23/15/24 
f 3/12/25 9/13/26 26/14/26 
f 26/14/26 4/15/26 3/12/25 
f 1/12/27 13/13/27 18/14/27 
f 18/14/27 10/15/27 1/12/27 
f 5/12/28 14/13/28 13/14/28 
f 13/14/28 1/15/28 5/12/28 
f 14/16/29 29/17/29 24/18/29 
f 24/18/29 15/19/29 14/16/29 
f 14/16/30 5/17/30 30/18/30 
f 30/18/30 29/19/30 14/16/30 
f 29/16/31 30/17/31 25/18/31 
f 25/18/31 24/19/31 29/16/31 
f 25/19/32 30/16/32 5/17/32 
f 5/17/32 4/18/32 25/19/32 
f 26/17/33 25/18/33 4/19/33 
# 56 faces

