# This file uses centimeters as units for non-parametric coordinates.

mtllib banqueta.mtl
g default
v 4.095021 0.099683 9.542124
v 4.171607 0.099683 32.237190
v 4.095021 0.488795 9.542124
v 4.171607 0.488795 32.237190
v 4.970594 0.488795 9.539169
v 5.047180 0.488795 32.234238
v 4.970594 0.099683 9.539169
v 5.047180 0.099683 32.234238
v -4.627740 0.099683 9.515451
v -4.551155 0.099683 32.210510
v -4.627740 0.488795 9.515451
v -4.551155 0.488795 32.210510
v -3.792807 0.488795 9.512634
v -3.716222 0.488795 32.207703
v -3.792807 0.099683 9.512634
v -3.716222 0.099683 32.207703
vt 0.002282 0.456414
vt 1.000000 0.502776
vt 1.000000 0.513420
vt 0.002282 0.467058
vt 0.997718 0.543586
vt 0.000000 0.497224
vt 0.997718 0.532942
vt 0.000000 0.486580
vt -0.000000 0.646729
vt 0.914154 0.305852
vt 0.914154 0.348359
vt -0.000000 0.689235
vt 0.002177 0.462432
vt 1.000000 0.508799
vt 0.997824 0.537568
vt 0.000000 0.491201
vt 0.085845 0.694148
vt 1.000000 0.353271
vt 1.000000 0.310765
vt 0.085845 0.651641
vn -0.999994 0.000000 0.003375
vn -0.999994 0.000000 0.003375
vn -0.999994 0.000000 0.003375
vn -0.999994 0.000000 0.003375
vn 0.000000 1.000000 0.000000
vn 0.000000 1.000000 -0.000000
vn 0.000000 1.000000 -0.000000
vn 0.000000 1.000000 -0.000000
vn 0.999994 0.000000 -0.003375
vn 0.999994 0.000000 -0.003375
vn 0.999994 0.000000 -0.003375
vn 0.999994 0.000000 -0.003375
vn 0.000000 -1.000000 0.000000
vn 0.000000 -1.000000 0.000000
vn 0.000000 -1.000000 0.000000
vn 0.000000 -1.000000 0.000000
vn 0.003376 0.000000 0.999994
vn 0.003372 0.000000 0.999994
vn 0.003374 0.000000 0.999994
vn 0.003370 0.000000 0.999994
vn -0.003374 0.000000 -0.999994
vn -0.003374 0.000000 -0.999994
vn -0.003374 0.000000 -0.999994
vn -0.003374 0.000000 -0.999994
vn -0.999994 0.000000 0.003375
vn -0.999994 0.000000 0.003375
vn -0.999994 0.000000 0.003375
vn -0.999994 0.000000 0.003375
vn 0.000000 1.000000 0.000000
vn 0.000000 1.000000 -0.000000
vn 0.000000 1.000000 -0.000000
vn 0.000000 1.000000 -0.000000
vn 0.999994 0.000000 -0.003375
vn 0.999994 0.000000 -0.003375
vn 0.999994 0.000000 -0.003375
vn 0.999994 0.000000 -0.003375
vn 0.000000 -1.000000 0.000000
vn 0.000000 -1.000000 0.000000
vn 0.000000 -1.000000 0.000000
vn 0.000000 -1.000000 0.000000
vn 0.003364 0.000000 0.999994
vn 0.003364 0.000000 0.999994
vn 0.003364 0.000000 0.999994
vn 0.003364 0.000000 0.999994
vn -0.003374 0.000000 -0.999994
vn -0.003374 0.000000 -0.999994
vn -0.003374 0.000000 -0.999994
vn -0.003374 0.000000 -0.999994
s 1
g pCube13
usemtl lambert23SG
f 1/1/1 2/2/2 3/4/3
f 3/4/3 2/2/2 4/3/4
s 2
f 3/4/5 4/3/6 5/6/7
f 5/6/7 4/3/6 6/5/8
s 3
f 5/6/9 6/5/10 7/8/11
f 7/8/11 6/5/10 8/7/12
s 4
f 7/8/13 8/7/14 1/1/15
f 1/1/15 8/7/14 2/2/16
s 5
f 2/2/17 8/7/18 4/3/19
f 4/3/19 8/7/18 6/5/20
s 6
f 7/8/21 1/1/22 5/6/23
f 5/6/23 1/1/22 3/4/24
s 7
f 9/9/25 10/10/26 11/12/27
f 11/12/27 10/10/26 12/11/28
s 8
f 11/13/29 12/14/30 13/16/31
f 13/16/31 12/14/30 14/15/32
s 9
f 13/17/33 14/18/34 15/20/35
f 15/20/35 14/18/34 16/19/36
s 10
f 15/20/37 16/19/38 9/9/39
f 9/9/39 16/19/38 10/10/40
s 11
f 10/10/41 16/19/42 12/11/43
f 12/11/43 16/19/42 14/18/44
s 12
f 15/20/45 9/9/46 13/17/47
f 13/17/47 9/9/46 11/12/48
g default
v 4.095021 0.099683 9.542124
v 4.171607 0.099683 32.237190
v 4.095021 0.488795 9.542124
v 4.171607 0.488795 32.237190
v 4.970594 0.488795 9.539169
v 5.047180 0.488795 32.234238
v 4.970594 0.099683 9.539169
v 5.047180 0.099683 32.234238
v -4.627740 0.099683 9.515451
v -4.551155 0.099683 32.210510
v -4.627740 0.488795 9.515451
v -4.551155 0.488795 32.210510
v -3.792807 0.488795 9.512634
v -3.716222 0.488795 32.207703
v -3.792807 0.099683 9.512634
v -3.716222 0.099683 32.207703
vt 0.002282 0.456414
vt 1.000000 0.502776
vt 1.000000 0.513420
vt 0.002282 0.467058
vt 0.997718 0.543586
vt 0.000000 0.497224
vt 0.997718 0.532942
vt 0.000000 0.486580
vt -0.000000 0.646729
vt 0.914154 0.305852
vt 0.914154 0.348359
vt -0.000000 0.689235
vt 0.002177 0.462432
vt 1.000000 0.508799
vt 0.997824 0.537568
vt 0.000000 0.491201
vt 0.085845 0.694148
vt 1.000000 0.353271
vt 1.000000 0.310765
vt 0.085845 0.651641
vn -0.999994 0.000000 0.003375
vn -0.999994 0.000000 0.003375
vn -0.999994 0.000000 0.003375
vn -0.999994 0.000000 0.003375
vn 0.000000 1.000000 0.000000
vn 0.000000 1.000000 -0.000000
vn 0.000000 1.000000 -0.000000
vn 0.000000 1.000000 -0.000000
vn 0.999994 0.000000 -0.003375
vn 0.999994 0.000000 -0.003375
vn 0.999994 0.000000 -0.003375
vn 0.999994 0.000000 -0.003375
vn 0.000000 -1.000000 0.000000
vn 0.000000 -1.000000 0.000000
vn 0.000000 -1.000000 0.000000
vn 0.000000 -1.000000 0.000000
vn 0.003376 0.000000 0.999994
vn 0.003372 0.000000 0.999994
vn 0.003374 0.000000 0.999994
vn 0.003370 0.000000 0.999994
vn -0.003374 0.000000 -0.999994
vn -0.003374 0.000000 -0.999994
vn -0.003374 0.000000 -0.999994
vn -0.003374 0.000000 -0.999994
vn -0.999994 0.000000 0.003375
vn -0.999994 0.000000 0.003375
vn -0.999994 0.000000 0.003375
vn -0.999994 0.000000 0.003375
vn 0.000000 1.000000 0.000000
vn 0.000000 1.000000 -0.000000
vn 0.000000 1.000000 -0.000000
vn 0.000000 1.000000 -0.000000
vn 0.999994 0.000000 -0.003375
vn 0.999994 0.000000 -0.003375
vn 0.999994 0.000000 -0.003375
vn 0.999994 0.000000 -0.003375
vn 0.000000 -1.000000 0.000000
vn 0.000000 -1.000000 0.000000
vn 0.000000 -1.000000 0.000000
vn 0.000000 -1.000000 0.000000
vn 0.003364 0.000000 0.999994
vn 0.003364 0.000000 0.999994
vn 0.003364 0.000000 0.999994
vn 0.003364 0.000000 0.999994
vn -0.003374 0.000000 -0.999994
vn -0.003374 0.000000 -0.999994
vn -0.003374 0.000000 -0.999994
vn -0.003374 0.000000 -0.999994
s 1
g pCube13
f 17/21/49 18/22/50 19/24/51
f 19/24/51 18/22/50 20/23/52
s 2
f 19/24/53 20/23/54 21/26/55
f 21/26/55 20/23/54 22/25/56
s 3
f 21/26/57 22/25/58 23/28/59
f 23/28/59 22/25/58 24/27/60
s 4
f 23/28/61 24/27/62 17/21/63
f 17/21/63 24/27/62 18/22/64
s 5
f 18/22/65 24/27/66 20/23/67
f 20/23/67 24/27/66 22/25/68
s 6
f 23/28/69 17/21/70 21/26/71
f 21/26/71 17/21/70 19/24/72
s 7
f 25/29/73 26/30/74 27/32/75
f 27/32/75 26/30/74 28/31/76
s 8
f 27/33/77 28/34/78 29/36/79
f 29/36/79 28/34/78 30/35/80
s 9
f 29/37/81 30/38/82 31/40/83
f 31/40/83 30/38/82 32/39/84
s 10
f 31/40/85 32/39/86 25/29/87
f 25/29/87 32/39/86 26/30/88
s 11
f 26/30/89 32/39/90 28/31/91
f 28/31/91 32/39/90 30/38/92
s 12
f 31/40/93 25/29/94 29/37/95
f 29/37/95 25/29/94 27/32/96
