# This file uses centimeters as units for non-parametric coordinates.

mtllib segundopiso1.mtl
g default
v -11.854750 3.383268 3.904858
v -9.455853 3.383268 3.879493
v -11.854750 3.464336 3.904858
v -9.455853 3.464336 3.879493
v -11.854750 3.464336 -9.831409
v -9.455853 3.464336 -9.912899
v -11.854750 3.383268 -9.831409
v -9.455853 3.383268 -9.912899
v -9.448986 3.415907 -6.009115
v -6.531440 3.415907 -6.090614
v -9.448986 3.458720 -6.009115
v -6.531440 3.458720 -6.090614
v -9.448986 3.458720 -9.910314
v -6.531440 3.458720 -9.991808
v -9.448986 3.415907 -9.910314
v -6.531440 3.415907 -9.991808
v -6.532472 3.383268 3.887862
v -4.133576 3.383268 3.887862
v -6.532472 3.464336 3.887862
v -4.133576 3.464336 3.887862
v -6.532472 3.464336 -9.990696
v -4.133576 3.464336 -9.990696
v -6.532472 3.383268 -9.990696
v -4.133576 3.383268 -9.990696
v -9.454618 3.384676 3.886047
v -6.544214 3.384676 3.886047
v -9.454618 3.458720 3.886047
v -6.544214 3.458720 3.886047
v -9.454618 3.458720 1.983024
v -6.544214 3.458720 1.983024
v -9.454618 3.384676 1.983024
v -6.544214 3.384676 1.983024
vt 0.000004 0.002141
vt 0.000000 0.000000
vt 1.000000 0.000000
vt 1.000004 0.002141
vt 1.000000 0.997861
vt 1.000004 1.000000
vt 0.000000 0.997861
vt 0.000004 1.000000
vt -0.922453 -0.000000
vt 1.922454 0.005872
vt 1.922454 1.000000
vt -0.922453 0.994126
vt 0.000000 0.000000
vt 1.000000 0.045344
vt 1.000000 0.045344
vt 0.000000 0.000000
vt 1.000000 1.000000
vt 0.000000 0.954659
vt 1.000000 1.000000
vt 0.000000 0.954659
vt -0.864001 0.000000
vt 1.864001 0.000000
vt 1.864001 0.000000
vt -0.864001 0.000000
vt 1.864001 1.000000
vt -0.864001 1.000000
vt 1.864001 1.000000
vt -0.864001 1.000000
vt 0.000000 0.000000
vt 1.000000 0.000000
vt 1.000000 0.000000
vt 0.000000 0.000000
vt 1.000000 1.000000
vt 0.000000 1.000000
vt 1.000000 1.000000
vt 0.000000 1.000000
vn 0.010573 0.000000 0.999944
vn 0.010573 0.000000 0.999944
vn 0.010573 0.000000 0.999944
vn 0.010573 0.000000 0.999944
vn 0.000000 1.000000 0.000000
vn 0.000000 1.000000 0.000000
vn 0.000000 1.000000 0.000000
vn 0.000000 1.000000 0.000000
vn -0.033950 0.000000 -0.999424
vn -0.033950 0.000000 -0.999424
vn -0.033950 0.000000 -0.999424
vn -0.033950 0.000000 -0.999424
vn 0.000000 -1.000000 0.000000
vn 0.000000 -1.000000 0.000000
vn 0.000000 -1.000000 0.000000
vn 0.000000 -1.000000 0.000000
vn 1.000000 0.000000 0.000000
vn 1.000000 0.000000 0.000000
vn 1.000000 0.000000 0.000000
vn 1.000000 0.000000 0.000000
vn -1.000000 0.000000 0.000000
vn -1.000000 0.000000 0.000000
vn -1.000000 0.000000 0.000000
vn -1.000000 0.000000 0.000000
vn 0.027923 0.000000 0.999610
vn 0.027923 0.000000 0.999610
vn 0.027923 0.000000 0.999610
vn 0.027923 0.000000 0.999610
vn 0.000000 1.000000 0.000000
vn 0.000000 1.000000 0.000000
vn 0.000000 1.000000 0.000000
vn 0.000000 1.000000 0.000000
vn -0.027922 0.000000 -0.999610
vn -0.027922 0.000000 -0.999610
vn -0.027922 0.000000 -0.999610
vn -0.027922 0.000000 -0.999610
vn 0.000000 -1.000000 0.000000
vn 0.000000 -1.000000 0.000000
vn 0.000000 -1.000000 0.000000
vn 0.000000 -1.000000 0.000000
vn 1.000000 0.000000 0.000000
vn 1.000000 0.000000 0.000000
vn 1.000000 0.000000 0.000000
vn 1.000000 0.000000 0.000000
vn -1.000000 0.000000 0.000000
vn -1.000000 0.000000 0.000000
vn -1.000000 0.000000 0.000000
vn -1.000000 0.000000 0.000000
vn 0.000000 0.000000 1.000000
vn 0.000000 0.000000 1.000000
vn 0.000000 0.000000 1.000000
vn 0.000000 0.000000 1.000000
vn 0.000000 1.000000 0.000000
vn 0.000000 1.000000 0.000000
vn 0.000000 1.000000 0.000000
vn 0.000000 1.000000 0.000000
vn 0.000000 0.000000 -1.000000
vn 0.000000 0.000000 -1.000000
vn 0.000000 0.000000 -1.000000
vn 0.000000 0.000000 -1.000000
vn 0.000000 -1.000000 0.000000
vn 0.000000 -1.000000 0.000000
vn 0.000000 -1.000000 0.000000
vn 0.000000 -1.000000 0.000000
vn 1.000000 0.000000 0.000000
vn 1.000000 0.000000 0.000000
vn 1.000000 0.000000 0.000000
vn 1.000000 0.000000 0.000000
vn -1.000000 0.000000 0.000000
vn -1.000000 0.000000 0.000000
vn -1.000000 0.000000 0.000000
vn -1.000000 0.000000 0.000000
vn 0.000000 0.000000 1.000000
vn 0.000000 0.000000 1.000000
vn 0.000000 0.000000 1.000000
vn 0.000000 0.000000 1.000000
vn 0.000000 1.000000 0.000000
vn 0.000000 1.000000 0.000000
vn 0.000000 1.000000 0.000000
vn 0.000000 1.000000 0.000000
vn 0.000000 0.000000 -1.000000
vn 0.000000 0.000000 -1.000000
vn 0.000000 0.000000 -1.000000
vn 0.000000 0.000000 -1.000000
vn 0.000000 -1.000000 0.000000
vn 0.000000 -1.000000 0.000000
vn 0.000000 -1.000000 0.000000
vn 0.000000 -1.000000 0.000000
vn 1.000000 0.000000 0.000000
vn 1.000000 0.000000 0.000000
vn 1.000000 0.000000 0.000000
vn 1.000000 0.000000 0.000000
vn -1.000000 0.000000 0.000000
vn -1.000000 0.000000 0.000000
vn -1.000000 0.000000 0.000000
vn -1.000000 0.000000 0.000000
s off
g polySurface321
usemtl lambert9SG
f 1/1/1 2/2/2 4/3/3 3/4/4
f 3/9/5 4/10/6 6/11/7 5/12/8
f 5/6/9 6/5/10 8/7/11 7/8/12
f 7/8/13 8/7/14 2/2/15 1/1/16
f 2/2/17 8/7/18 6/5/19 4/3/20
f 7/8/21 1/1/22 3/4/23 5/6/24
f 9/13/25 10/14/26 12/15/27 11/16/28
f 11/16/29 12/15/30 14/17/31 13/18/32
f 13/18/33 14/17/34 16/19/35 15/20/36
f 15/20/37 16/19/38 10/14/39 9/13/40
f 10/14/41 16/19/42 14/17/43 12/15/44
f 15/20/45 9/13/46 11/16/47 13/18/48
f 17/21/49 18/22/50 20/23/51 19/24/52
f 19/24/53 20/23/54 22/25/55 21/26/56
f 21/26/57 22/25/58 24/27/59 23/28/60
f 23/28/61 24/27/62 18/22/63 17/21/64
f 18/22/65 24/27/66 22/25/67 20/23/68
f 23/28/69 17/21/70 19/24/71 21/26/72
f 25/29/73 26/30/74 28/31/75 27/32/76
f 27/32/77 28/31/78 30/33/79 29/34/80
f 29/34/81 30/33/82 32/35/83 31/36/84
f 31/36/85 32/35/86 26/30/87 25/29/88
f 26/30/89 32/35/90 30/33/91 28/31/92
f 31/36/93 25/29/94 27/32/95 29/34/96
