# This file uses centimeters as units for non-parametric coordinates.

mtllib techo.mtl
g default
v 12.025687 8.369934 -9.919580
v 4.134816 8.369934 -9.906547
v 12.136716 19.494213 -9.919584
v 4.133404 8.372912 -9.929444
v 12.017347 19.594967 3.897432
v 4.096584 14.178780 3.910469
v 11.992199 8.369934 4.000475
v 3.940707 8.369934 3.995772
v -11.975206 8.369934 3.944908
v -4.054860 8.369934 3.863438
v -11.975201 19.494213 3.944908
v -4.054860 14.092083 3.863438
v -11.975206 18.999786 -7.843529
v -3.945855 8.538220 -10.111689
v -11.975008 8.541598 -10.088600
v -3.954004 8.535286 -10.103191
vt 1.000000 0.000000
vt 0.000000 0.319384
vt 0.000000 0.000000
vt 1.000000 0.287012
vt 1.000000 1.000000
vt 0.998895 -0.000000
vt 0.375000 0.750000
vt 0.625000 0.750000
vt 0.375000 1.000000
vt 0.625000 1.000000
vt 1.000000 0.712988
vt 0.000000 0.330864
vt 0.000000 0.000000
vt 1.000000 0.000000
vt 0.872572 1.000000
vt 0.127428 0.546465
vt 0.127428 -0.000000
vt 0.872572 -0.000000
vt 0.000000 -0.000000
vt 0.001105 0.954920
vt 1.000000 1.000000
vt 0.000000 0.955554
vt 0.000000 0.014071
vt 0.999999 1.000000
vt 0.144006 -0.000000
vt 0.855994 -0.000000
vt 0.855994 0.518511
vt 0.144007 1.000000
vt -0.000000 1.000000
vt 0.006863 -0.000000
vt 1.000000 -0.000000
vt 0.993136 0.954920
vt 0.000000 1.000000
vt 0.999992 0.014726
vt 0.999992 0.000000
vt 0.000000 0.000000
vt 0.375000 0.750000
vt 0.625000 0.750000
vt 0.625000 1.000000
vt 0.375000 1.000000
vt 0.000000 0.128664
vt 1.000000 0.152586
vt 1.000000 0.172741
vt 0.000000 0.871337
vt 1.000000 0.000000
vt -0.000000 0.000000
vt -0.000000 1.000000
vt 1.000000 0.955554
vn -0.000213 -0.991650 -0.128955
vn 0.001249 -0.003289 -0.999994
vn 0.001250 -0.000017 -0.999999
vn 0.001250 -0.000013 -0.999999
vn -0.787844 0.567176 -0.240027
vn -0.707623 0.691418 -0.145639
vn -0.736021 0.653483 -0.176729
vn -0.564430 0.825409 -0.010895
vn -0.004638 0.009190 0.999947
vn -0.003457 0.010795 0.999936
vn -0.003574 0.010636 0.999937
vn -0.000584 0.014699 0.999892
vn 0.000000 -1.000000 0.000000
vn 0.000000 -1.000000 0.000000
vn 0.000000 -1.000000 0.000000
vn 0.000000 -1.000000 -0.000000
vn -0.864534 -0.502428 -0.012075
vn -0.999550 0.026619 -0.013826
vn -0.999553 0.026502 -0.013826
vn -0.999550 0.026619 -0.013826
vn 0.999947 -0.009980 0.002406
vn 0.999965 -0.006600 0.005107
vn 0.999967 -0.005534 0.005959
vn 0.999960 -0.002161 0.008655
vn 0.010286 0.000000 0.999947
vn 0.010286 -0.000000 0.999947
vn 0.010286 -0.000000 0.999947
vn 0.010286 -0.000000 0.999947
vn 0.562891 0.825805 -0.034636
vn 0.684128 0.710450 -0.165017
vn 0.701029 0.688548 -0.185634
vn 0.743692 0.623232 -0.241878
vn -0.624046 -0.324879 -0.710647
vn -0.003899 0.208213 -0.978076
vn -0.001615 0.209888 -0.977724
vn -0.001613 0.209889 -0.977724
vn -0.000808 -0.999930 -0.011844
vn -0.000352 -0.999927 -0.012103
vn -0.000586 -0.999928 -0.011971
vn -0.000126 -0.999925 -0.012232
vn 0.586537 -0.751081 0.303070
vn 0.999974 -0.000001 0.007221
vn 0.999916 -0.007813 0.010329
vn 0.999974 0.000000 0.007221
vn -1.000000 -0.000016 -0.000014
vn -1.000000 -0.000008 -0.000007
vn -1.000000 -0.000009 -0.000008
vn -1.000000 0.000000 0.000000
s 1
g pasted__pCube5
usemtl lambert2SG
f 2/3/1 4/23/2 1/1/3
f 1/1/3 4/23/2 3/24/4
s 2
f 4/6/5 6/19/6 3/5/7
f 3/5/7 6/19/6 5/20/8
s 3
f 5/15/9 6/16/10 7/18/11
f 7/18/11 6/16/10 8/17/12
s 4
f 8/8/13 2/10/14 7/7/15
f 7/7/15 2/10/14 1/9/16
s 5
f 2/2/17 8/4/18 4/12/19
f 8/4/18 6/11/20 4/12/19
s 6
f 1/14/21 3/21/22 7/13/23
f 7/13/23 3/21/22 5/22/24
s 7
usemtl lambert3SG
f 10/26/25 12/27/26 9/25/27
f 9/25/27 12/27/26 11/28/28
s 8
f 11/29/29 12/30/30 13/32/31
f 13/32/31 12/30/30 14/31/32
s 9
f 14/34/33 16/35/34 13/33/35
f 13/33/35 16/35/34 15/36/36
s 10
f 16/38/37 10/39/38 15/37/39
f 15/37/39 10/39/38 9/40/40
s 11
f 14/43/41 12/44/42 16/42/43
f 10/41/44 16/42/43 12/44/42
s 12
f 15/45/45 9/46/46 13/48/47
f 13/48/47 9/46/46 11/47/48
g default
v 12.025687 8.369934 -9.919580
v 4.134816 8.369934 -9.906547
v 12.136716 19.494213 -9.919584
v 4.133404 8.372912 -9.929444
v 12.017347 19.594967 3.897432
v 4.096584 14.178780 3.910469
v 11.992199 8.369934 4.000475
v 3.940707 8.369934 3.995772
v -11.975206 8.369934 3.944908
v -4.054860 8.369934 3.863438
v -11.975201 19.494213 3.944908
v -4.054860 14.092083 3.863438
v -11.975206 18.999786 -7.843529
v -3.945855 8.538220 -10.111689
v -11.975008 8.541598 -10.088600
v -3.954004 8.535286 -10.103191
vt 1.000000 0.000000
vt 0.000000 0.319384
vt 0.000000 0.000000
vt 1.000000 0.287012
vt 1.000000 1.000000
vt 0.998895 -0.000000
vt 0.375000 0.750000
vt 0.625000 0.750000
vt 0.375000 1.000000
vt 0.625000 1.000000
vt 1.000000 0.712988
vt 0.000000 0.330864
vt 0.000000 0.000000
vt 1.000000 0.000000
vt 0.872572 1.000000
vt 0.127428 0.546465
vt 0.127428 -0.000000
vt 0.872572 -0.000000
vt 0.000000 -0.000000
vt 0.001105 0.954920
vt 1.000000 1.000000
vt 0.000000 0.955554
vt 0.000000 0.014071
vt 0.999999 1.000000
vt 0.144006 -0.000000
vt 0.855994 -0.000000
vt 0.855994 0.518511
vt 0.144007 1.000000
vt -0.000000 1.000000
vt 0.006863 -0.000000
vt 1.000000 -0.000000
vt 0.993136 0.954920
vt 0.000000 1.000000
vt 0.999992 0.014726
vt 0.999992 0.000000
vt 0.000000 0.000000
vt 0.375000 0.750000
vt 0.625000 0.750000
vt 0.625000 1.000000
vt 0.375000 1.000000
vt 0.000000 0.128664
vt 1.000000 0.152586
vt 1.000000 0.172741
vt 0.000000 0.871337
vt 1.000000 0.000000
vt -0.000000 0.000000
vt -0.000000 1.000000
vt 1.000000 0.955554
vn -0.000213 -0.991650 -0.128955
vn 0.001249 -0.003289 -0.999994
vn 0.001250 -0.000017 -0.999999
vn 0.001250 -0.000013 -0.999999
vn -0.787844 0.567176 -0.240027
vn -0.707623 0.691418 -0.145639
vn -0.736021 0.653483 -0.176729
vn -0.564430 0.825409 -0.010895
vn -0.004638 0.009190 0.999947
vn -0.003457 0.010795 0.999936
vn -0.003574 0.010636 0.999937
vn -0.000584 0.014699 0.999892
vn 0.000000 -1.000000 0.000000
vn 0.000000 -1.000000 0.000000
vn 0.000000 -1.000000 0.000000
vn 0.000000 -1.000000 -0.000000
vn -0.864534 -0.502428 -0.012075
vn -0.999550 0.026619 -0.013826
vn -0.999553 0.026502 -0.013826
vn -0.999550 0.026619 -0.013826
vn 0.999947 -0.009980 0.002406
vn 0.999965 -0.006600 0.005107
vn 0.999967 -0.005534 0.005959
vn 0.999960 -0.002161 0.008655
vn 0.010286 0.000000 0.999947
vn 0.010286 -0.000000 0.999947
vn 0.010286 -0.000000 0.999947
vn 0.010286 -0.000000 0.999947
vn 0.562891 0.825805 -0.034636
vn 0.684128 0.710450 -0.165017
vn 0.701029 0.688548 -0.185634
vn 0.743692 0.623232 -0.241878
vn -0.624046 -0.324879 -0.710647
vn -0.003899 0.208213 -0.978076
vn -0.001615 0.209888 -0.977724
vn -0.001613 0.209889 -0.977724
vn -0.000808 -0.999930 -0.011844
vn -0.000352 -0.999927 -0.012103
vn -0.000586 -0.999928 -0.011971
vn -0.000126 -0.999925 -0.012232
vn 0.586537 -0.751081 0.303070
vn 0.999974 -0.000001 0.007221
vn 0.999916 -0.007813 0.010329
vn 0.999974 0.000000 0.007221
vn -1.000000 -0.000016 -0.000014
vn -1.000000 -0.000008 -0.000007
vn -1.000000 -0.000009 -0.000008
vn -1.000000 0.000000 0.000000
s 1
g pasted__pCube5
f 18/51/49 20/71/50 17/49/51
f 17/49/51 20/71/50 19/72/52
s 2
f 20/54/53 22/67/54 19/53/55
f 19/53/55 22/67/54 21/68/56
s 3
f 21/63/57 22/64/58 23/66/59
f 23/66/59 22/64/58 24/65/60
s 4
f 24/56/61 18/58/62 23/55/63
f 23/55/63 18/58/62 17/57/64
s 5
f 18/50/65 24/52/66 20/60/67
f 24/52/66 22/59/68 20/60/67
s 6
f 17/62/69 19/69/70 23/61/71
f 23/61/71 19/69/70 21/70/72
s 7
f 26/74/73 28/75/74 25/73/75
f 25/73/75 28/75/74 27/76/76
s 8
f 27/77/77 28/78/78 29/80/79
f 29/80/79 28/78/78 30/79/80
s 9
f 30/82/81 32/83/82 29/81/83
f 29/81/83 32/83/82 31/84/84
s 10
f 32/86/85 26/87/86 31/85/87
f 31/85/87 26/87/86 25/88/88
s 11
f 30/91/89 28/92/90 32/90/91
f 26/89/92 32/90/91 28/92/90
s 12
f 31/93/93 25/94/94 29/96/95
f 29/96/95 25/94/94 27/95/96
