# This file uses centimeters as units for non-parametric coordinates.

mtllib TTPD.mtl
g default
v -2.126281 1.133283 -4.785614
v -1.598468 1.133283 -4.785614
v -1.070655 1.133283 -4.785614
v -0.542843 1.133283 -4.785614
v -0.015030 1.133283 -4.785614
v 0.512783 1.133283 -4.785614
v 1.040595 1.133283 -4.785614
v 1.568408 1.133283 -4.785614
v 2.096221 1.133283 -4.785614
v -2.126281 1.661095 -4.785614
v -1.598468 1.661095 -4.785614
v -1.070655 1.661095 -4.785614
v -0.542843 1.661095 -4.785614
v -0.015030 1.661095 -4.785614
v 0.512783 1.661095 -4.785614
v 1.040595 1.661095 -4.785614
v 1.568408 1.661095 -4.785614
v 2.096221 1.661095 -4.785614
v -2.126281 2.188908 -4.785614
v -1.598468 2.188908 -4.785614
v -1.070655 2.188908 -4.785614
v -0.542843 2.188908 -4.785614
v -0.015030 2.188908 -4.785614
v 0.512783 2.188908 -4.785614
v 1.040595 2.188908 -4.785614
v 1.568408 2.188908 -4.785614
v 2.096221 2.188908 -4.785614
v -2.126281 2.716721 -4.785614
v -1.598468 2.716721 -4.785614
v -1.070655 2.716721 -4.785614
v -0.542843 2.716721 -4.785614
v -0.015030 2.716721 -4.785614
v 0.512783 2.716721 -4.785614
v 1.040595 2.716721 -4.785614
v 1.568408 2.716721 -4.785614
v 2.096221 2.716721 -4.785614
v -2.126281 3.244534 -4.785614
v -1.598468 3.244534 -4.785614
v -1.070655 3.244534 -4.785614
v -0.542843 3.244534 -4.785614
v -0.015030 3.244534 -4.785614
v 0.512783 3.244534 -4.785614
v 1.040595 3.244534 -4.785614
v 1.568408 3.244534 -4.785614
v 2.096221 3.244534 -4.785614
v -2.126281 3.772346 -4.785614
v -1.598468 3.772346 -4.785614
v -1.070655 3.772346 -4.785614
v -0.542843 3.772346 -4.785614
v -0.015030 3.772346 -4.785614
v 0.512783 3.772346 -4.785614
v 1.040595 3.772346 -4.785614
v 1.568408 3.772346 -4.785614
v 2.096221 3.772346 -4.785614
v -2.126281 4.300159 -4.785614
v -1.598468 4.300159 -4.785614
v -1.070655 4.300159 -4.785614
v -0.542843 4.300159 -4.785614
v -0.015030 4.300159 -4.785614
v 0.512783 4.300159 -4.785614
v 1.040595 4.300159 -4.785614
v 1.568408 4.300159 -4.785614
v 2.096221 4.300159 -4.785614
v -2.126281 4.827971 -4.785614
v -1.598468 4.827971 -4.785614
v -1.070655 4.827971 -4.785614
v -0.542843 4.827971 -4.785614
v -0.015030 4.827971 -4.785614
v 0.512783 4.827971 -4.785614
v 1.040595 4.827971 -4.785614
v 1.568408 4.827971 -4.785614
v 2.096221 4.827971 -4.785614
v -2.126281 5.355785 -4.785614
v -1.598468 5.355785 -4.785614
v -1.070655 5.355785 -4.785614
v -0.542843 5.355785 -4.785614
v -0.015030 5.355785 -4.785614
v 0.512783 5.355785 -4.785614
v 1.040595 5.355785 -4.785614
v 1.568408 5.355785 -4.785614
v 2.096221 5.355785 -4.785614
v -2.126281 5.883597 -4.785614
v -1.598468 5.883597 -4.785614
v -1.070655 5.883597 -4.785614
v -0.542843 5.883597 -4.785614
v -0.015030 5.883597 -4.785614
v 0.512783 5.883597 -4.785614
v 1.040595 5.883597 -4.785614
v 1.568408 5.883597 -4.785614
v 2.096221 5.883597 -4.785614
v -2.126281 6.411409 -4.785614
v -1.598468 6.411409 -4.785614
v -1.070655 6.411409 -4.785614
v -0.542843 6.411409 -4.785614
v -0.015030 6.411409 -4.785614
v 0.512783 6.411409 -4.785614
v 1.040595 6.411409 -4.785614
v 1.568408 6.411409 -4.785614
v 2.096221 6.411409 -4.785614
vt -0.013917 0.000461
vt 0.114562 0.000461
vt 0.114562 0.100369
vt -0.013917 0.100369
vt 0.243042 0.000461
vt 0.243042 0.100369
vt 0.371521 0.000461
vt 0.371521 0.100369
vt 0.500000 0.000461
vt 0.500000 0.100369
vt 0.628479 0.000461
vt 0.628479 0.100369
vt 0.756958 0.000461
vt 0.756958 0.100369
vt 0.885437 0.000461
vt 0.885437 0.100369
vt 1.013917 0.000461
vt 1.013917 0.100369
vt 0.114562 0.200277
vt -0.013917 0.200277
vt 0.243042 0.200277
vt 0.371521 0.200277
vt 0.500000 0.200277
vt 0.628479 0.200277
vt 0.756958 0.200277
vt 0.885437 0.200277
vt 1.013917 0.200277
vt 0.114562 0.300184
vt -0.013917 0.300184
vt 0.243042 0.300184
vt 0.371521 0.300184
vt 0.500000 0.300184
vt 0.628479 0.300184
vt 0.756958 0.300184
vt 0.885437 0.300184
vt 1.013917 0.300184
vt 0.114562 0.400092
vt -0.013917 0.400092
vt 0.243042 0.400092
vt 0.371521 0.400092
vt 0.500000 0.400092
vt 0.628479 0.400092
vt 0.756958 0.400092
vt 0.885437 0.400092
vt 1.013917 0.400092
vt 0.114562 0.500000
vt -0.013917 0.500000
vt 0.243042 0.500000
vt 0.371521 0.500000
vt 0.500000 0.500000
vt 0.628479 0.500000
vt 0.756958 0.500000
vt 0.885437 0.500000
vt 1.013917 0.500000
vt 0.114562 0.599908
vt -0.013917 0.599908
vt 0.243042 0.599908
vt 0.371521 0.599908
vt 0.500000 0.599908
vt 0.628479 0.599908
vt 0.756958 0.599908
vt 0.885437 0.599908
vt 1.013917 0.599908
vt 0.114562 0.699816
vt -0.013917 0.699816
vt 0.243042 0.699816
vt 0.371521 0.699816
vt 0.500000 0.699816
vt 0.628479 0.699816
vt 0.756958 0.699816
vt 0.885437 0.699816
vt 1.013917 0.699816
vt 0.114562 0.799724
vt -0.013917 0.799724
vt 0.243042 0.799724
vt 0.371521 0.799724
vt 0.500000 0.799724
vt 0.628479 0.799724
vt 0.756958 0.799724
vt 0.885437 0.799724
vt 1.013917 0.799724
vt 0.114562 0.899631
vt -0.013917 0.899631
vt 0.243042 0.899631
vt 0.371521 0.899631
vt 0.500000 0.899631
vt 0.628479 0.899631
vt 0.756958 0.899631
vt 0.885437 0.899631
vt 1.013917 0.899631
vt 0.114562 0.999539
vt -0.013917 0.999539
vt 0.243042 0.999539
vt 0.371521 0.999539
vt 0.500000 0.999539
vt 0.628479 0.999539
vt 0.756958 0.999539
vt 0.885437 0.999539
vt 1.013917 0.999539
vn 0.000000 0.000000 1.000000
vn 0.000000 0.000000 1.000000
vn 0.000000 0.000000 1.000000
vn 0.000000 0.000000 1.000000
vn 0.000000 0.000000 1.000000
vn 0.000000 0.000000 1.000000
vn 0.000000 0.000000 1.000000
vn 0.000000 0.000000 1.000000
vn 0.000000 0.000000 1.000000
vn 0.000000 0.000000 1.000000
vn 0.000000 0.000000 1.000000
vn 0.000000 0.000000 1.000000
vn 0.000000 0.000000 1.000000
vn 0.000000 0.000000 1.000000
vn 0.000000 0.000000 1.000000
vn 0.000000 0.000000 1.000000
vn 0.000000 0.000000 1.000000
vn 0.000000 0.000000 1.000000
vn 0.000000 0.000000 1.000000
vn 0.000000 0.000000 1.000000
vn 0.000000 0.000000 1.000000
vn 0.000000 0.000000 1.000000
vn 0.000000 0.000000 1.000000
vn 0.000000 0.000000 1.000000
vn 0.000000 0.000000 1.000000
vn 0.000000 0.000000 1.000000
vn 0.000000 0.000000 1.000000
vn 0.000000 0.000000 1.000000
vn 0.000000 0.000000 1.000000
vn 0.000000 0.000000 1.000000
vn 0.000000 0.000000 1.000000
vn 0.000000 0.000000 1.000000
vn 0.000000 0.000000 1.000000
vn 0.000000 0.000000 1.000000
vn 0.000000 0.000000 1.000000
vn 0.000000 0.000000 1.000000
vn 0.000000 0.000000 1.000000
vn 0.000000 0.000000 1.000000
vn 0.000000 0.000000 1.000000
vn 0.000000 0.000000 1.000000
vn 0.000000 0.000000 1.000000
vn 0.000000 0.000000 1.000000
vn 0.000000 0.000000 1.000000
vn 0.000000 0.000000 1.000000
vn 0.000000 0.000000 1.000000
vn 0.000000 0.000000 1.000000
vn 0.000000 0.000000 1.000000
vn 0.000000 0.000000 1.000000
vn 0.000000 0.000000 1.000000
vn 0.000000 0.000000 1.000000
vn 0.000000 0.000000 1.000000
vn 0.000000 0.000000 1.000000
vn 0.000000 0.000000 1.000000
vn 0.000000 0.000000 1.000000
vn 0.000000 0.000000 1.000000
vn 0.000000 0.000000 1.000000
vn 0.000000 0.000000 1.000000
vn 0.000000 0.000000 1.000000
vn 0.000000 0.000000 1.000000
vn 0.000000 0.000000 1.000000
vn 0.000000 0.000000 1.000000
vn 0.000000 0.000000 1.000000
vn 0.000000 0.000000 1.000000
vn 0.000000 0.000000 1.000000
vn 0.000000 0.000000 1.000000
vn 0.000000 0.000000 1.000000
vn 0.000000 0.000000 1.000000
vn 0.000000 0.000000 1.000000
vn 0.000000 0.000000 1.000000
vn 0.000000 0.000000 1.000000
vn 0.000000 0.000000 1.000000
vn 0.000000 0.000000 1.000000
vn 0.000000 0.000000 1.000000
vn 0.000000 0.000000 1.000000
vn 0.000000 0.000000 1.000000
vn 0.000000 0.000000 1.000000
vn 0.000000 0.000000 1.000000
vn 0.000000 0.000000 1.000000
vn 0.000000 0.000000 1.000000
vn 0.000000 0.000000 1.000000
vn 0.000000 0.000000 1.000000
vn 0.000000 0.000000 1.000000
vn 0.000000 0.000000 1.000000
vn 0.000000 0.000000 1.000000
vn 0.000000 0.000000 1.000000
vn 0.000000 0.000000 1.000000
vn 0.000000 0.000000 1.000000
vn 0.000000 0.000000 1.000000
vn 0.000000 0.000000 1.000000
vn 0.000000 0.000000 1.000000
vn 0.000000 0.000000 1.000000
vn 0.000000 0.000000 1.000000
vn 0.000000 0.000000 1.000000
vn 0.000000 0.000000 1.000000
vn 0.000000 0.000000 1.000000
vn 0.000000 0.000000 1.000000
vn 0.000000 0.000000 1.000000
vn 0.000000 0.000000 1.000000
vn 0.000000 0.000000 1.000000
s 1
g Fountain1:Fountain:pPlane1
usemtl Fountain1:Fountain:lambert2SG
f 1/1/1 2/2/2 11/3/3 10/4/4
f 2/2/2 3/5/5 12/6/6 11/3/3
f 3/5/5 4/7/7 13/8/8 12/6/6
f 4/7/7 5/9/9 14/10/10 13/8/8
f 5/9/9 6/11/11 15/12/12 14/10/10
f 6/11/11 7/13/13 16/14/14 15/12/12
f 7/13/13 8/15/15 17/16/16 16/14/14
f 8/15/15 9/17/17 18/18/18 17/16/16
f 10/4/4 11/3/3 20/19/19 19/20/20
f 11/3/3 12/6/6 21/21/21 20/19/19
f 12/6/6 13/8/8 22/22/22 21/21/21
f 13/8/8 14/10/10 23/23/23 22/22/22
f 14/10/10 15/12/12 24/24/24 23/23/23
f 15/12/12 16/14/14 25/25/25 24/24/24
f 16/14/14 17/16/16 26/26/26 25/25/25
f 17/16/16 18/18/18 27/27/27 26/26/26
f 19/20/20 20/19/19 29/28/28 28/29/29
f 20/19/19 21/21/21 30/30/30 29/28/28
f 21/21/21 22/22/22 31/31/31 30/30/30
f 22/22/22 23/23/23 32/32/32 31/31/31
f 23/23/23 24/24/24 33/33/33 32/32/32
f 24/24/24 25/25/25 34/34/34 33/33/33
f 25/25/25 26/26/26 35/35/35 34/34/34
f 26/26/26 27/27/27 36/36/36 35/35/35
f 28/29/29 29/28/28 38/37/37 37/38/38
f 29/28/28 30/30/30 39/39/39 38/37/37
f 30/30/30 31/31/31 40/40/40 39/39/39
f 31/31/31 32/32/32 41/41/41 40/40/40
f 32/32/32 33/33/33 42/42/42 41/41/41
f 33/33/33 34/34/34 43/43/43 42/42/42
f 34/34/34 35/35/35 44/44/44 43/43/43
f 35/35/35 36/36/36 45/45/45 44/44/44
f 37/38/38 38/37/37 47/46/46 46/47/47
f 38/37/37 39/39/39 48/48/48 47/46/46
f 39/39/39 40/40/40 49/49/49 48/48/48
f 40/40/40 41/41/41 50/50/50 49/49/49
f 41/41/41 42/42/42 51/51/51 50/50/50
f 42/42/42 43/43/43 52/52/52 51/51/51
f 43/43/43 44/44/44 53/53/53 52/52/52
f 44/44/44 45/45/45 54/54/54 53/53/53
f 46/47/47 47/46/46 56/55/55 55/56/56
f 47/46/46 48/48/48 57/57/57 56/55/55
f 48/48/48 49/49/49 58/58/58 57/57/57
f 49/49/49 50/50/50 59/59/59 58/58/58
f 50/50/50 51/51/51 60/60/60 59/59/59
f 51/51/51 52/52/52 61/61/61 60/60/60
f 52/52/52 53/53/53 62/62/62 61/61/61
f 53/53/53 54/54/54 63/63/63 62/62/62
f 55/56/56 56/55/55 65/64/64 64/65/65
f 56/55/55 57/57/57 66/66/66 65/64/64
f 57/57/57 58/58/58 67/67/67 66/66/66
f 58/58/58 59/59/59 68/68/68 67/67/67
f 59/59/59 60/60/60 69/69/69 68/68/68
f 60/60/60 61/61/61 70/70/70 69/69/69
f 61/61/61 62/62/62 71/71/71 70/70/70
f 62/62/62 63/63/63 72/72/72 71/71/71
f 64/65/65 65/64/64 74/73/73 73/74/74
f 65/64/64 66/66/66 75/75/75 74/73/73
f 66/66/66 67/67/67 76/76/76 75/75/75
f 67/67/67 68/68/68 77/77/77 76/76/76
f 68/68/68 69/69/69 78/78/78 77/77/77
f 69/69/69 70/70/70 79/79/79 78/78/78
f 70/70/70 71/71/71 80/80/80 79/79/79
f 71/71/71 72/72/72 81/81/81 80/80/80
f 73/74/74 74/73/73 83/82/82 82/83/83
f 74/73/73 75/75/75 84/84/84 83/82/82
f 75/75/75 76/76/76 85/85/85 84/84/84
f 76/76/76 77/77/77 86/86/86 85/85/85
f 77/77/77 78/78/78 87/87/87 86/86/86
f 78/78/78 79/79/79 88/88/88 87/87/87
f 79/79/79 80/80/80 89/89/89 88/88/88
f 80/80/80 81/81/81 90/90/90 89/89/89
f 82/83/83 83/82/82 92/91/91 91/92/92
f 83/82/82 84/84/84 93/93/93 92/91/91
f 84/84/84 85/85/85 94/94/94 93/93/93
f 85/85/85 86/86/86 95/95/95 94/94/94
f 86/86/86 87/87/87 96/96/96 95/95/95
f 87/87/87 88/88/88 97/97/97 96/96/96
f 88/88/88 89/89/89 98/98/98 97/97/97
f 89/89/89 90/90/90 99/99/99 98/98/98
