# This file uses centimeters as units for non-parametric coordinates.

mtllib asfalto.mtl
g default
v -26.403145 -0.139364 38.503063
v 26.403145 -0.139364 38.503063
v -26.403145 0.060983 38.503063
v 26.403145 0.060983 38.503063
v -26.403145 0.060983 3.866152
v 26.403145 0.060983 3.866152
v -26.403145 -0.139364 3.866152
v 26.403145 -0.139364 3.866152
vt 0.013553 0.172368
vt 1.000000 0.192623
vt 1.000000 0.193363
vt 0.013553 0.173108
vt 0.986446 0.827632
vt -0.000000 0.807377
vt 0.986446 0.826892
vt -0.000000 0.806637
vn 0.000000 0.000000 1.000000
vn 0.000000 0.000000 1.000000
vn 0.000000 0.000000 1.000000
vn 0.000000 0.000000 1.000000
vn 0.000000 1.000000 0.000000
vn 0.000000 1.000000 0.000000
vn 0.000000 1.000000 0.000000
vn 0.000000 1.000000 0.000000
vn 0.000000 0.000000 -1.000000
vn 0.000000 0.000000 -1.000000
vn 0.000000 0.000000 -1.000000
vn 0.000000 0.000000 -1.000000
vn 0.000000 -1.000000 0.000000
vn 0.000000 -1.000000 0.000000
vn 0.000000 -1.000000 0.000000
vn 0.000000 -1.000000 0.000000
vn 1.000000 0.000000 0.000000
vn 1.000000 0.000000 0.000000
vn 1.000000 0.000000 0.000000
vn 1.000000 0.000000 0.000000
vn -1.000000 0.000000 0.000000
vn -1.000000 0.000000 0.000000
vn -1.000000 0.000000 0.000000
vn -1.000000 0.000000 0.000000
s 1
g pCube10
usemtl lambert4SG
f 1/1/1 2/2/2 3/4/3
f 3/4/3 2/2/2 4/3/4
s 2
f 3/4/5 4/3/6 5/6/7
f 5/6/7 4/3/6 6/5/8
s 3
f 5/6/9 6/5/10 7/8/11
f 7/8/11 6/5/10 8/7/12
s 4
f 7/8/13 8/7/14 1/1/15
f 1/1/15 8/7/14 2/2/16
s 5
f 2/2/17 8/7/18 4/3/19
f 4/3/19 8/7/18 6/5/20
s 6
f 7/8/21 1/1/22 5/6/23
f 5/6/23 1/1/22 3/4/24
g default
v -26.403145 -0.139364 38.503063
v 26.403145 -0.139364 38.503063
v -26.403145 0.060983 38.503063
v 26.403145 0.060983 38.503063
v -26.403145 0.060983 3.866152
v 26.403145 0.060983 3.866152
v -26.403145 -0.139364 3.866152
v 26.403145 -0.139364 3.866152
vt 0.013553 0.172368
vt 1.000000 0.192623
vt 1.000000 0.193363
vt 0.013553 0.173108
vt 0.986446 0.827632
vt -0.000000 0.807377
vt 0.986446 0.826892
vt -0.000000 0.806637
vn 0.000000 0.000000 1.000000
vn 0.000000 0.000000 1.000000
vn 0.000000 0.000000 1.000000
vn 0.000000 0.000000 1.000000
vn 0.000000 1.000000 0.000000
vn 0.000000 1.000000 0.000000
vn 0.000000 1.000000 0.000000
vn 0.000000 1.000000 0.000000
vn 0.000000 0.000000 -1.000000
vn 0.000000 0.000000 -1.000000
vn 0.000000 0.000000 -1.000000
vn 0.000000 0.000000 -1.000000
vn 0.000000 -1.000000 0.000000
vn 0.000000 -1.000000 0.000000
vn 0.000000 -1.000000 0.000000
vn 0.000000 -1.000000 0.000000
vn 1.000000 0.000000 0.000000
vn 1.000000 0.000000 0.000000
vn 1.000000 0.000000 0.000000
vn 1.000000 0.000000 0.000000
vn -1.000000 0.000000 0.000000
vn -1.000000 0.000000 0.000000
vn -1.000000 0.000000 0.000000
vn -1.000000 0.000000 0.000000
s 1
g pCube10
f 9/9/25 10/10/26 11/12/27
f 11/12/27 10/10/26 12/11/28
s 2
f 11/12/29 12/11/30 13/14/31
f 13/14/31 12/11/30 14/13/32
s 3
f 13/14/33 14/13/34 15/16/35
f 15/16/35 14/13/34 16/15/36
s 4
f 15/16/37 16/15/38 9/9/39
f 9/9/39 16/15/38 10/10/40
s 5
f 10/10/41 16/15/42 12/11/43
f 12/11/43 16/15/42 14/13/44
s 6
f 15/16/45 9/9/46 13/14/47
f 13/14/47 9/9/46 11/12/48
