# This file uses centimeters as units for non-parametric coordinates.

mtllib piso.mtl
g default
v -11.945094 -0.117075 3.969800
v -3.978610 -0.117075 3.969800
v -11.945094 0.117075 3.888299
v -3.978610 0.117075 3.888299
v -11.945094 0.117075 -10.058162
v -3.978610 0.117075 -10.058162
v -11.945094 -0.117075 -9.976660
v -3.978610 -0.117075 -9.976660
v -3.969330 -0.117075 3.806883
v 4.234406 -0.117075 3.806883
v -3.969330 0.117075 3.806883
v 4.234406 0.117075 3.806883
v -3.969330 0.117075 -4.995510
v 4.234406 0.117075 -4.995510
v -3.969330 -0.117075 -4.995510
v 4.234406 -0.117075 -4.995510
v 4.218541 -0.117075 3.806883
v 12.058022 -0.117075 3.806883
v 4.218541 0.117075 3.725383
v 12.058022 0.117075 3.725383
v 4.218541 0.117075 -9.926508
v 12.058022 0.117075 -9.926508
v 4.218541 -0.117075 -9.845004
v 12.058022 -0.117075 -9.845004
vt -0.000000 0.000000
vt 1.000000 0.000000
vt 1.000000 0.006852
vt -0.000000 0.006852
vt 1.000000 1.000000
vt -0.000000 1.000000
vt 1.000000 0.993148
vt -0.000000 0.993148
vt -0.000000 -0.000000
vt -0.000000 -0.000000
vt 1.000000 -0.000000
vt 1.000000 -0.000000
vt -0.000000 1.000000
vt 1.000000 1.000000
vt -0.000000 1.000000
vt 1.000000 1.000000
vt 0.000000 0.000000
vt 1.000000 0.000000
vt 1.000000 0.005935
vt 0.000000 0.005935
vt 1.000000 1.000000
vt 0.000000 1.000000
vt 1.000000 0.994065
vt 0.000000 0.994065
vn 0.000000 0.328727 0.944425
vn 0.000000 0.328727 0.944425
vn 0.000000 0.328727 0.944425
vn 0.000000 0.328727 0.944425
vn 0.000000 1.000000 0.000000
vn 0.000000 1.000000 0.000000
vn 0.000000 1.000000 0.000000
vn 0.000000 1.000000 0.000000
vn 0.000000 -0.328732 -0.944423
vn 0.000000 -0.328732 -0.944423
vn 0.000000 -0.328732 -0.944423
vn 0.000000 -0.328732 -0.944423
vn 0.000000 -1.000000 0.000000
vn 0.000000 -1.000000 0.000000
vn 0.000000 -1.000000 0.000000
vn 0.000000 -1.000000 0.000000
vn 1.000000 0.000001 0.000000
vn 1.000000 -0.000002 0.000000
vn 1.000000 0.000001 0.000000
vn 1.000000 -0.000002 0.000000
vn -1.000000 0.000000 0.000000
vn -1.000000 0.000000 0.000000
vn -1.000000 0.000014 0.000000
vn -1.000000 0.000014 0.000000
vn 0.000000 0.000000 1.000000
vn 0.000000 0.000000 1.000000
vn 0.000000 0.000000 1.000000
vn 0.000000 0.000000 1.000000
vn 0.000000 1.000000 0.000000
vn 0.000000 1.000000 0.000000
vn 0.000000 1.000000 0.000000
vn 0.000000 1.000000 0.000000
vn 0.000000 0.000000 -1.000000
vn 0.000000 0.000000 -1.000000
vn 0.000000 0.000000 -1.000000
vn 0.000000 0.000000 -1.000000
vn 0.000000 -1.000000 0.000000
vn 0.000000 -1.000000 0.000000
vn 0.000000 -1.000000 0.000000
vn 0.000000 -1.000000 0.000000
vn 1.000000 0.000000 0.000000
vn 1.000000 0.000000 0.000000
vn 1.000000 0.000000 0.000000
vn 1.000000 0.000000 0.000000
vn -1.000000 0.000000 0.000000
vn -1.000000 0.000000 0.000000
vn -1.000000 0.000000 0.000000
vn -1.000000 0.000000 0.000000
vn 0.000000 0.328727 0.944425
vn 0.000000 0.328727 0.944425
vn 0.000000 0.328727 0.944425
vn 0.000000 0.328727 0.944425
vn 0.000000 1.000000 0.000000
vn 0.000000 1.000000 0.000000
vn 0.000000 1.000000 0.000000
vn 0.000000 1.000000 0.000000
vn 0.000000 -0.328739 -0.944421
vn 0.000000 -0.328739 -0.944421
vn 0.000000 -0.328739 -0.944421
vn 0.000000 -0.328739 -0.944421
vn 0.000000 -1.000000 0.000000
vn 0.000000 -1.000000 0.000000
vn 0.000000 -1.000000 0.000000
vn 0.000000 -1.000000 0.000000
vn 1.000000 0.000004 0.000000
vn 1.000000 0.000000 0.000000
vn 1.000000 0.000004 0.000000
vn 1.000000 0.000000 0.000000
vn -1.000000 0.000000 0.000000
vn -1.000000 0.000000 0.000000
vn -1.000000 0.000002 0.000000
vn -1.000000 0.000002 0.000000
s 1
g pCube12
usemtl lambert9SG
f 1/1/1 2/2/2 3/4/3
f 3/4/3 2/2/2 4/3/4
s 2
f 3/4/5 4/3/6 5/6/7
f 5/6/7 4/3/6 6/5/8
s 3
f 5/6/9 6/5/10 7/8/11
f 7/8/11 6/5/10 8/7/12
s 4
f 7/8/13 8/7/14 1/1/15
f 1/1/15 8/7/14 2/2/16
s 5
f 2/2/17 8/7/18 4/3/19
f 4/3/19 8/7/18 6/5/20
s 6
f 1/1/21 3/4/22 7/8/23
f 7/8/23 3/4/22 5/6/24
s 7
f 11/9/25 9/10/26 12/12/27
f 12/12/27 9/10/26 10/11/28
s 8
f 13/13/29 11/9/30 14/14/31
f 14/14/31 11/9/30 12/12/32
s 9
f 15/15/33 13/13/34 16/16/35
f 16/16/35 13/13/34 14/14/36
s 10
f 9/10/37 15/15/38 10/11/39
f 10/11/39 15/15/38 16/16/40
s 11
f 12/12/41 10/11/42 14/14/43
f 14/14/43 10/11/42 16/16/44
s 12
f 13/13/45 15/15/46 11/9/47
f 11/9/47 15/15/46 9/10/48
s 13
f 17/17/49 18/18/50 19/20/51
f 19/20/51 18/18/50 20/19/52
s 14
f 19/20/53 20/19/54 21/22/55
f 21/22/55 20/19/54 22/21/56
s 15
f 21/22/57 22/21/58 23/24/59
f 23/24/59 22/21/58 24/23/60
s 16
f 23/24/61 24/23/62 17/17/63
f 17/17/63 24/23/62 18/18/64
s 17
f 18/18/65 24/23/66 20/19/67
f 20/19/67 24/23/66 22/21/68
s 18
f 17/17/69 19/20/70 23/24/71
f 23/24/71 19/20/70 21/22/72
